<svg xmlns="http://www.w3.org/2000/svg" viewBox="0 0 32 32">
  <defs>
    <linearGradient id="gold" x1="0%" y1="0%" x2="100%" y2="100%">
      <stop offset="0%" stop-color="#fffef5"/>
      <stop offset="8%" stop-color="#ffe9a8"/>
      <stop offset="22%" stop-color="#e8c547"/>
      <stop offset="38%" stop-color="#7a5a18"/>
      <stop offset="52%" stop-color="#d4af37"/>
      <stop offset="68%" stop-color="#f8ecc0"/>
      <stop offset="82%" stop-color="#a88428"/>
      <stop offset="100%" stop-color="#fffef5"/>
    </linearGradient>
  </defs>
  <rect width="32" height="32" rx="4" fill="#110e08"/>
  <g stroke="url(#gold)" stroke-width="1.6" stroke-linecap="round">
    <line x1="11" y1="6" x2="11" y2="9.5"/>
    <line x1="16" y1="6" x2="16" y2="9.5"/>
    <line x1="21" y1="6" x2="21" y2="9.5"/>
    <line x1="11" y1="22.5" x2="11" y2="26"/>
    <line x1="16" y1="22.5" x2="16" y2="26"/>
    <line x1="21" y1="22.5" x2="21" y2="26"/>
    <line x1="6" y1="12" x2="9.5" y2="12"/>
    <line x1="6" y1="16" x2="9.5" y2="16"/>
    <line x1="6" y1="20" x2="9.5" y2="20"/>
    <line x1="22.5" y1="12" x2="26" y2="12"/>
    <line x1="22.5" y1="16" x2="26" y2="16"/>
    <line x1="22.5" y1="20" x2="26" y2="20"/>
  </g>
  <rect
    x="9.5"
    y="9.5"
    width="13"
    height="13"
    rx="1.5"
    fill="none"
    stroke="url(#gold)"
    stroke-width="1.8"
  />
  <rect x="12.5" y="12.5" width="7" height="7" rx="1" fill="url(#gold)" opacity="0.35"/>
</svg>
