<svg xmlns="http://www.w3.org/2000/svg" viewBox="0 0 32 32">
  <defs>
    <radialGradient id="brass" cx="40%" cy="35%" r="65%">
      <stop offset="0%" stop-color="#f0cf57"/>
      <stop offset="55%" stop-color="#b08d57"/>
      <stop offset="100%" stop-color="#7a5e36"/>
    </radialGradient>
    <radialGradient id="hub" cx="50%" cy="45%" r="50%">
      <stop offset="0%" stop-color="#d4b074"/>
      <stop offset="100%" stop-color="#7d4a1d"/>
    </radialGradient>
  </defs>
  <path fill="url(#brass)" d="M 30.50 16.00 L 30.22 18.83 L 25.98 20.13 L 24.98 22.00 L 26.25 26.25 L 24.06 28.06 L 20.13 25.98 L 18.11 26.59 L 16.00 30.50 L 13.17 30.22 L 11.87 25.98 L 10.00 24.98 L 5.75 26.25 L 3.94 24.06 L 6.02 20.13 L 5.41 18.11 L 1.50 16.00 L 1.78 13.17 L 6.02 11.87 L 7.02 10.00 L 5.75 5.75 L 7.94 3.94 L 11.87 6.02 L 13.89 5.41 L 16.00 1.50 L 18.83 1.78 L 20.13 6.02 L 22.00 7.02 L 26.25 5.75 L 28.06 7.94 L 25.98 11.87 L 26.59 13.89 Z"/>
  <circle cx="16" cy="16" r="3.8" fill="#1a0f06"/>
  <circle cx="16" cy="16" r="1.7" fill="url(#hub)"/>
</svg>
