<svg xmlns="http://www.w3.org/2000/svg" viewBox="0 0 32 32">
  <defs>
    <radialGradient id="face" cx="50%" cy="45%" r="55%">
      <stop offset="0%" stop-color="#2a2218"/>
      <stop offset="55%" stop-color="#1a1612"/>
      <stop offset="100%" stop-color="#0d0a07"/>
    </radialGradient>
  </defs>
  <circle cx="16" cy="16" r="15.5" fill="#d4b074"/>
  <circle cx="16" cy="16" r="14.8" fill="#b08d57"/>
  <circle cx="16" cy="16" r="14.1" fill="#7a5e36"/>
  <circle cx="16" cy="16" r="13.2" fill="url(#face)" stroke="#2a1f10" stroke-width="0.4"/>
  <g stroke="#7a5e36" stroke-width="0.45" fill="none" stroke-linecap="round">
    <line x1="6.42" y1="24.03" x2="7.11" y2="23.46"/>
    <line x1="4.13" y1="19.93" x2="4.99" y2="19.65"/>
    <line x1="3.52" y1="15.27" x2="4.42" y2="15.33"/>
    <line x1="4.67" y1="10.72" x2="5.49" y2="11.10"/>
    <line x1="7.42" y1="6.91" x2="8.04" y2="7.56"/>
    <line x1="11.38" y1="4.38" x2="11.72" y2="5.22"/>
    <line x1="16.00" y1="3.50" x2="16.00" y2="4.40"/>
    <line x1="20.62" y1="4.38" x2="20.28" y2="5.22"/>
    <line x1="24.58" y1="6.91" x2="23.96" y2="7.56"/>
    <line x1="27.33" y1="10.72" x2="26.51" y2="11.10"/>
    <line x1="28.48" y1="15.27" x2="27.58" y2="15.33"/>
    <line x1="27.87" y1="19.93" x2="27.01" y2="19.65"/>
    <line x1="25.58" y1="24.03" x2="24.89" y2="23.46"/>
  </g>
  <g stroke="#c9a96a" stroke-width="0.7" fill="none" stroke-linecap="round">
    <line x1="6.42" y1="24.03" x2="7.80" y2="22.88"/>
    <line x1="3.52" y1="15.27" x2="5.32" y2="15.38"/>
    <line x1="7.42" y1="6.91" x2="8.66" y2="8.22"/>
    <line x1="16.00" y1="3.50" x2="16.00" y2="5.30"/>
    <line x1="24.58" y1="6.91" x2="23.34" y2="8.22"/>
    <line x1="28.48" y1="15.27" x2="26.68" y2="15.38"/>
    <line x1="25.58" y1="24.03" x2="24.20" y2="22.88"/>
  </g>
  <line x1="16" y1="16" x2="23.49" y2="10.15" stroke="#ff7a18" stroke-width="1.1" stroke-linecap="round"/>
  <line x1="16" y1="16" x2="14.03" y2="17.54" stroke="#ff7a18" stroke-width="1.1" stroke-linecap="round"/>
  <circle cx="16" cy="16" r="1.6" fill="#1a120a" stroke="#d4af37" stroke-width="0.7"/>
</svg>
